# Tiled2Unity generated file. Do not modify by hand.
# Wavefront file for 'Biology_mesh_0003.obj'

# Vertices (Count = 232)
v -107 -91 0
v -108 -91 0
v -108 -90 0
v -107 -90 0
v -104 -91 0
v -105 -91 0
v -105 -90 0
v -104 -90 0
v -109 -93 0
v -110 -93 0
v -110 -92 0
v -109 -92 0
v -107 -93 0
v -108 -93 0
v -108 -92 0
v -107 -92 0
v -104 -93 0
v -105 -93 0
v -105 -92 0
v -104 -92 0
v -102 -93 0
v -103 -93 0
v -103 -92 0
v -102 -92 0
v -110 -96 0
v -111 -96 0
v -111 -95 0
v -110 -95 0
v -109 -96 0
v -110 -96 0
v -110 -95 0
v -109 -95 0
v -106 -96 0
v -107 -96 0
v -107 -95 0
v -106 -95 0
v -105 -96 0
v -106 -96 0
v -106 -95 0
v -105 -95 0
v -102 -96 0
v -103 -96 0
v -103 -95 0
v -102 -95 0
v -101 -96 0
v -102 -96 0
v -102 -95 0
v -101 -95 0
v -110 -97 0
v -111 -97 0
v -111 -96 0
v -110 -96 0
v -109 -97 0
v -110 -97 0
v -110 -96 0
v -109 -96 0
v -102 -97 0
v -103 -97 0
v -103 -96 0
v -102 -96 0
v -101 -97 0
v -102 -97 0
v -102 -96 0
v -101 -96 0
v -110 -98 0
v -111 -98 0
v -111 -97 0
v -110 -97 0
v -109 -98 0
v -110 -98 0
v -110 -97 0
v -109 -97 0
v -106 -98 0
v -107 -98 0
v -107 -97 0
v -106 -97 0
v -105 -98 0
v -106 -98 0
v -106 -97 0
v -105 -97 0
v -102 -98 0
v -103 -98 0
v -103 -97 0
v -102 -97 0
v -101 -98 0
v -102 -98 0
v -102 -97 0
v -101 -97 0
v -110 -99 0
v -111 -99 0
v -111 -98 0
v -110 -98 0
v -109 -99 0
v -110 -99 0
v -110 -98 0
v -109 -98 0
v -102 -99 0
v -103 -99 0
v -103 -98 0
v -102 -98 0
v -101 -99 0
v -102 -99 0
v -102 -98 0
v -101 -98 0
v -110 -100 0
v -111 -100 0
v -111 -99 0
v -110 -99 0
v -109 -100 0
v -110 -100 0
v -110 -99 0
v -109 -99 0
v -106 -100 0
v -107 -100 0
v -107 -99 0
v -106 -99 0
v -105 -100 0
v -106 -100 0
v -106 -99 0
v -105 -99 0
v -102 -100 0
v -103 -100 0
v -103 -99 0
v -102 -99 0
v -101 -100 0
v -102 -100 0
v -102 -99 0
v -101 -99 0
v -110 -101 0
v -111 -101 0
v -111 -100 0
v -110 -100 0
v -109 -101 0
v -110 -101 0
v -110 -100 0
v -109 -100 0
v -102 -101 0
v -103 -101 0
v -103 -100 0
v -102 -100 0
v -101 -101 0
v -102 -101 0
v -102 -100 0
v -101 -100 0
v -110 -102 0
v -111 -102 0
v -111 -101 0
v -110 -101 0
v -109 -102 0
v -110 -102 0
v -110 -101 0
v -109 -101 0
v -106 -102 0
v -107 -102 0
v -107 -101 0
v -106 -101 0
v -105 -102 0
v -106 -102 0
v -106 -101 0
v -105 -101 0
v -102 -102 0
v -103 -102 0
v -103 -101 0
v -102 -101 0
v -101 -102 0
v -102 -102 0
v -102 -101 0
v -101 -101 0
v -110 -103 0
v -111 -103 0
v -111 -102 0
v -110 -102 0
v -109 -103 0
v -110 -103 0
v -110 -102 0
v -109 -102 0
v -102 -103 0
v -103 -103 0
v -103 -102 0
v -102 -102 0
v -101 -103 0
v -102 -103 0
v -102 -102 0
v -101 -102 0
v -110 -104 0
v -111 -104 0
v -111 -103 0
v -110 -103 0
v -109 -104 0
v -110 -104 0
v -110 -103 0
v -109 -103 0
v -106 -104 0
v -107 -104 0
v -107 -103 0
v -106 -103 0
v -105 -104 0
v -106 -104 0
v -106 -103 0
v -105 -103 0
v -102 -104 0
v -103 -104 0
v -103 -103 0
v -102 -103 0
v -101 -104 0
v -102 -104 0
v -102 -103 0
v -101 -103 0
v -110 -105 0
v -111 -105 0
v -111 -104 0
v -110 -104 0
v -109 -105 0
v -110 -105 0
v -110 -104 0
v -109 -104 0
v -102 -105 0
v -103 -105 0
v -103 -104 0
v -102 -104 0
v -101 -105 0
v -102 -105 0
v -102 -104 0
v -101 -104 0
v -109 -107 0
v -110 -107 0
v -110 -106 0
v -109 -106 0
v -102 -107 0
v -103 -107 0
v -103 -106 0
v -102 -106 0

# Texture cooridinates (Count = 60)
vt 0.2458678 0.7756654
vt 0.2623967 0.7756654
vt 0.2623967 0.8060837
vt 0.2458678 0.8060837
vt 0.07024793 0.5817491
vt 0.08677686 0.5817491
vt 0.08677686 0.6121673
vt 0.07024793 0.6121673
vt 0.03512397 0.6787072
vt 0.05165289 0.6787072
vt 0.05165289 0.7091255
vt 0.03512397 0.7091255
vt 0.2985537 0.7756654
vt 0.3150826 0.7756654
vt 0.3150826 0.8060837
vt 0.2985537 0.8060837
vt 0.2634298 0.7756654
vt 0.2799587 0.7756654
vt 0.2799587 0.8060837
vt 0.2634298 0.8060837
vt 0.07024793 0.7756654
vt 0.08677686 0.7756654
vt 0.08677686 0.8060837
vt 0.07024793 0.8060837
vt 0.07024793 0.6463878
vt 0.08677686 0.6463878
vt 0.08677686 0.6768061
vt 0.07024793 0.6768061
vt 0.03512397 0.5494297
vt 0.05165289 0.5494297
vt 0.05165289 0.5798479
vt 0.03512397 0.5798479
vt 0.03512397 0.743346
vt 0.05165289 0.743346
vt 0.05165289 0.7737643
vt 0.03512397 0.7737643
vt 0.07024793 0.5494297
vt 0.08677686 0.5494297
vt 0.08677686 0.5798479
vt 0.07024793 0.5798479
vt 0.03512397 0.6463878
vt 0.05165289 0.6463878
vt 0.05165289 0.6768061
vt 0.03512397 0.6768061
vt 0.07024793 0.743346
vt 0.08677686 0.743346
vt 0.08677686 0.7737643
vt 0.07024793 0.7737643
vt 0.07024793 0.6140684
vt 0.08677686 0.6140684
vt 0.08677686 0.6444867
vt 0.07024793 0.6444867
vt 0.03512397 0.5171102
vt 0.05165289 0.5171102
vt 0.05165289 0.5475285
vt 0.03512397 0.5475285
vt 0.03512397 0.7110266
vt 0.05165289 0.7110266
vt 0.05165289 0.7414448
vt 0.03512397 0.7414448

# Normal
vn 0 0 -1

# Mesh description
g Biology_mesh_0003

# Faces
f 1/1/1 2/2/1 3/3/1 4/4/1
f 5/1/1 6/2/1 7/3/1 8/4/1
f 9/1/1 10/2/1 11/3/1 12/4/1
f 13/1/1 14/2/1 15/3/1 16/4/1
f 17/1/1 18/2/1 19/3/1 20/4/1
f 21/1/1 22/2/1 23/3/1 24/4/1
f 25/5/1 26/6/1 27/7/1 28/8/1
f 29/9/1 30/10/1 31/11/1 32/12/1
f 33/13/1 34/14/1 35/15/1 36/16/1
f 37/17/1 38/18/1 39/19/1 40/20/1
f 41/21/1 42/22/1 43/23/1 44/24/1
f 45/9/1 46/10/1 47/11/1 48/12/1
f 49/25/1 50/26/1 51/27/1 52/28/1
f 53/29/1 54/30/1 55/31/1 56/32/1
f 57/25/1 58/26/1 59/27/1 60/28/1
f 61/33/1 62/34/1 63/35/1 64/36/1
f 65/37/1 66/38/1 67/39/1 68/40/1
f 69/41/1 70/42/1 71/43/1 72/44/1
f 73/13/1 74/14/1 75/15/1 76/16/1
f 77/17/1 78/18/1 79/19/1 80/20/1
f 81/45/1 82/46/1 83/47/1 84/48/1
f 85/41/1 86/42/1 87/43/1 88/44/1
f 89/25/1 90/26/1 91/27/1 92/28/1
f 93/29/1 94/30/1 95/31/1 96/32/1
f 97/25/1 98/26/1 99/27/1 100/28/1
f 101/33/1 102/34/1 103/35/1 104/36/1
f 105/37/1 106/38/1 107/39/1 108/40/1
f 109/41/1 110/42/1 111/43/1 112/44/1
f 113/13/1 114/14/1 115/15/1 116/16/1
f 117/17/1 118/18/1 119/19/1 120/20/1
f 121/45/1 122/46/1 123/47/1 124/48/1
f 125/33/1 126/34/1 127/35/1 128/36/1
f 129/25/1 130/26/1 131/27/1 132/28/1
f 133/29/1 134/30/1 135/31/1 136/32/1
f 137/25/1 138/26/1 139/27/1 140/28/1
f 141/41/1 142/42/1 143/43/1 144/44/1
f 145/37/1 146/38/1 147/39/1 148/40/1
f 149/41/1 150/42/1 151/43/1 152/44/1
f 153/13/1 154/14/1 155/15/1 156/16/1
f 157/17/1 158/18/1 159/19/1 160/20/1
f 161/45/1 162/46/1 163/47/1 164/48/1
f 165/41/1 166/42/1 167/43/1 168/44/1
f 169/25/1 170/26/1 171/27/1 172/28/1
f 173/29/1 174/30/1 175/31/1 176/32/1
f 177/25/1 178/26/1 179/27/1 180/28/1
f 181/33/1 182/34/1 183/35/1 184/36/1
f 185/37/1 186/38/1 187/39/1 188/40/1
f 189/41/1 190/42/1 191/43/1 192/44/1
f 193/13/1 194/14/1 195/15/1 196/16/1
f 197/17/1 198/18/1 199/19/1 200/20/1
f 201/45/1 202/46/1 203/47/1 204/48/1
f 205/41/1 206/42/1 207/43/1 208/44/1
f 209/49/1 210/50/1 211/51/1 212/52/1
f 213/53/1 214/54/1 215/55/1 216/56/1
f 217/49/1 218/50/1 219/51/1 220/52/1
f 221/57/1 222/58/1 223/59/1 224/60/1
f 225/1/1 226/2/1 227/3/1 228/4/1
f 229/1/1 230/2/1 231/3/1 232/4/1

